<svg width="164" height="20" viewBox="0 0 164 20" fill="none" xmlns="http://www.w3.org/2000/svg">
<path d="M2.93189 10.5044C3.0022 11.3816 3.37484 12.0833 4.04981 12.6096C4.72477 13.136 5.74426 13.3991 7.10825 13.3991C7.7551 13.3991 8.33866 13.348 8.85895 13.2456C9.37924 13.1287 9.82218 12.9313 10.1878 12.6535C10.5675 12.3611 10.7573 11.9956 10.7573 11.557C10.7573 11.1038 10.5675 10.7383 10.1878 10.4605C9.80812 10.1681 9.1894 9.89766 8.33163 9.64912L4.32401 8.50877C1.86319 7.82164 0.632782 6.45468 0.632782 4.40789C0.632782 2.93129 1.20229 1.82748 2.34129 1.09649C3.49436 0.365497 4.94273 0 6.6864 0C8.55662 0 10.0894 0.423976 11.2846 1.27193C12.4939 2.10526 13.1689 3.28947 13.3095 4.82456L10.3776 4.97807C10.2933 4.24708 9.93468 3.64766 9.3019 3.17982C8.68318 2.71199 7.79025 2.47807 6.62312 2.47807C5.72316 2.47807 5.01304 2.63158 4.49275 2.9386C3.98653 3.23099 3.73341 3.64766 3.73341 4.1886C3.73341 4.99269 4.45057 5.59941 5.88487 6.00877L9.74484 7.08333C11.1229 7.46345 12.1494 7.98246 12.8244 8.64035C13.5134 9.28363 13.8579 10.1681 13.8579 11.2939C13.8579 12.8289 13.2533 13.9766 12.044 14.7368C10.8346 15.4971 9.18237 15.8772 7.08716 15.8772C4.85133 15.8772 3.13579 15.4313 1.94053 14.5395C0.759339 13.633 0.112495 12.3173 0 10.5921L2.93189 10.5044Z" fill="var(--fill-fill-brand-dark, #1A1A1A)"/>
<path d="M22.6257 3.85965C24.0741 3.85965 25.1709 4.27632 25.9162 5.10965C26.6756 5.92836 27.0552 7.1345 27.0552 8.72807V15.614H24.0811V9.67105C24.0811 8.58918 23.8773 7.77778 23.4695 7.23684C23.0617 6.68129 22.4008 6.40351 21.4867 6.40351C20.4602 6.40351 19.6657 6.73977 19.1033 7.41228C18.5549 8.07017 18.2806 8.9693 18.2806 10.1096V15.614H15.3066V4.12281H18.0697V6.40351C18.9556 4.7076 20.4743 3.85965 22.6257 3.85965Z" fill="var(--fill-fill-brand-dark, #1A1A1A)"/>
<path d="M34.6842 3.85965C36.4982 3.85965 37.8833 4.27632 38.8395 5.10965C39.8097 5.92836 40.2949 7.16374 40.2949 8.81579V15.614H37.5106V13.3991C36.5544 15.0512 34.9654 15.8772 32.7437 15.8772C31.3516 15.8772 30.2969 15.5629 29.5798 14.9342C28.8626 14.3056 28.504 13.4795 28.504 12.4561C28.504 11.3304 28.947 10.4825 29.8329 9.91228C30.7328 9.3421 32.0617 8.98392 33.8194 8.83772L37.3208 8.55263V8.15789C37.3208 7.51462 37.1028 7.00292 36.6669 6.62281C36.231 6.22807 35.5701 6.02339 34.6842 6.00877C33.053 6.00877 32.146 6.56433 31.9632 7.67544H29.2001C29.2563 6.75439 29.5516 6.00146 30.086 5.41667C30.6344 4.83187 31.2883 4.42982 32.0476 4.21053C32.807 3.97661 33.6858 3.85965 34.6842 3.85965ZM33.6296 13.7281C34.7405 13.7281 35.6334 13.4503 36.3083 12.8947C36.9833 12.3392 37.3208 11.652 37.3208 10.8333V10.3728L34.1991 10.636C32.371 10.7968 31.457 11.3523 31.457 12.3026C31.457 12.7412 31.6398 13.0921 32.0054 13.3553C32.371 13.6038 32.9124 13.7281 33.6296 13.7281Z" fill="var(--fill-fill-brand-dark, #1A1A1A)"/>
<path d="M49.4323 3.85965C51.0494 3.85965 52.3642 4.40058 53.3767 5.48246C54.3891 6.54971 54.8953 8.0117 54.8953 9.86842C54.8953 11.7251 54.3891 13.1944 53.3767 14.2763C52.3642 15.3436 51.0565 15.8772 49.4534 15.8772C47.5691 15.8772 46.1629 15.1681 45.2349 13.75V20H42.2608V4.12281H45.0239V6.27193C45.9239 4.66374 47.3933 3.85965 49.4323 3.85965ZM46.0153 12.5C46.634 13.1579 47.4707 13.4868 48.5253 13.4868C49.58 13.4868 50.4166 13.1579 51.0354 12.5C51.6541 11.8421 51.9634 10.9649 51.9634 9.86842C51.9634 8.77193 51.6541 7.89474 51.0354 7.23684C50.4166 6.57895 49.58 6.25 48.5253 6.25C47.4707 6.25 46.634 6.57895 46.0153 7.23684C45.4106 7.89474 45.1083 8.77193 45.1083 9.86842C45.1083 10.9649 45.4106 11.8421 46.0153 12.5Z" fill="var(--fill-fill-brand-dark, #1A1A1A)"/>
<path d="M70.95 15.614H67.7228L66.5416 14.3421C65.2761 15.3655 63.6379 15.8772 61.627 15.8772C59.7006 15.8772 58.2663 15.519 57.3241 14.8026C56.382 14.0716 55.9109 13.0994 55.9109 11.886C55.9109 11.3596 55.9882 10.8918 56.1429 10.4825C56.2976 10.0731 56.5718 9.68567 56.9655 9.32018C57.3733 8.95468 57.7319 8.66959 58.0413 8.46491C58.3506 8.24561 58.8428 7.9386 59.5178 7.54386L60.0029 7.25877L59.7709 6.99561C59.0256 6.1769 58.4983 5.48977 58.1889 4.93421C57.8796 4.37865 57.7249 3.84503 57.7249 3.33333C57.7249 2.29532 58.1397 1.48392 58.9694 0.899123C59.799 0.299708 60.9029 0 62.2809 0C63.6871 0 64.7839 0.314327 65.5714 0.942982C66.3729 1.57164 66.7737 2.44883 66.7737 3.57456C66.7737 4.29094 66.5698 4.9269 66.162 5.48246C65.7682 6.02339 65.1073 6.57895 64.1793 7.14912L63.4621 7.56579L66.5206 10.8553C66.858 10.1827 67.0901 9.40058 67.2166 8.50877H69.4946C69.2415 10.0731 68.7775 11.4181 68.1025 12.5439L70.95 15.614ZM61.8802 5.87719L62.0489 6.05263L62.6184 5.70175C63.6871 5.0731 64.2214 4.40058 64.2214 3.68421C64.2214 3.20175 64.0386 2.82164 63.673 2.54386C63.3215 2.26608 62.8575 2.12719 62.2809 2.12719C61.7466 2.12719 61.2966 2.24415 60.931 2.47807C60.5794 2.71199 60.4037 3.05556 60.4037 3.50877C60.4037 3.83041 60.5091 4.14474 60.7201 4.45175C60.931 4.75877 61.3177 5.23392 61.8802 5.87719ZM61.7747 13.6404C63.0965 13.6404 64.1863 13.326 65.0441 12.6974L61.4372 8.81579L60.6568 9.27632C60.0381 9.64181 59.581 10.0146 59.2857 10.3947C58.9904 10.7602 58.8428 11.1842 58.8428 11.6667C58.8428 12.2515 59.0818 12.7266 59.56 13.0921C60.0381 13.4576 60.7763 13.6404 61.7747 13.6404Z" fill="var(--fill-fill-brand-dark, #1A1A1A)"/>
<path d="M78.8039 7.45614H86.0809V14.386C83.831 15.3801 81.5671 15.8772 79.2891 15.8772C76.6033 15.8772 74.5291 15.1681 73.0667 13.75C71.6184 12.3173 70.8942 10.3801 70.8942 7.9386C70.8942 5.5117 71.5691 3.58187 72.9191 2.14912C74.2831 0.716374 76.1814 0 78.6141 0C80.5406 0 82.1296 0.445906 83.3811 1.33772C84.6326 2.21491 85.413 3.40643 85.7224 4.91228L82.7272 5.15351C82.4741 4.39327 81.9749 3.78655 81.2296 3.33333C80.4843 2.8655 79.6125 2.63158 78.6141 2.63158C77.1236 2.63158 75.9845 3.13597 75.1971 4.14474C74.4096 5.13889 74.0159 6.40351 74.0159 7.9386C74.0159 9.53216 74.4729 10.8187 75.3869 11.7982C76.315 12.7632 77.6438 13.2456 79.3734 13.2456C80.6109 13.2456 81.8975 13.0263 83.2334 12.5877V9.62719H78.8039V7.45614Z" fill="var(--fill-fill-brand-dark, #1A1A1A)"/>
<path d="M99.9695 10.4386V10.7895H90.309C90.5903 12.7485 91.8066 13.7281 93.9581 13.7281C95.3502 13.7281 96.3345 13.2602 96.9111 12.3246L99.8008 12.4781C99.4492 13.5599 98.7743 14.4006 97.7759 15C96.7775 15.5848 95.5049 15.8772 93.9581 15.8772C91.9051 15.8772 90.2809 15.3801 89.0857 14.386C87.9045 13.3772 87.3139 11.8713 87.3139 9.86842C87.3139 7.88012 87.8974 6.38158 89.0646 5.37281C90.2458 4.36403 91.8277 3.85965 93.8104 3.85965C97.9165 3.85965 99.9695 6.05263 99.9695 10.4386ZM93.8104 6.00877C92.8683 6.00877 92.0879 6.24269 91.4691 6.71053C90.8645 7.17836 90.4848 7.88743 90.3301 8.83772H97.0376C96.9673 7.96053 96.6509 7.27339 96.0885 6.77632C95.526 6.26462 94.7666 6.00877 93.8104 6.00877Z" fill="var(--fill-fill-brand-dark, #1A1A1A)"/>
<path d="M109 6.44737H105.899V11.4693C105.899 12.1564 106.005 12.6316 106.216 12.8947C106.441 13.1579 106.87 13.2895 107.502 13.2895C107.826 13.2895 108.325 13.2456 109 13.1579V15.6579C108.297 15.7749 107.594 15.8333 106.891 15.8333C105.499 15.8333 104.486 15.5409 103.853 14.9561C103.235 14.3567 102.925 13.348 102.925 11.9298V6.44737H100.225V4.16667H102.208C102.532 4.16667 102.757 4.10819 102.883 3.99123C103.024 3.85965 103.094 3.64766 103.094 3.35526V1.42544H105.899V4.12281H109V6.44737Z" fill="var(--fill-fill-brand-dark, #1A1A1A)"/>
<path d="M126.459 7.95359C127.911 8.06611 129.043 8.41772 129.854 9.00844C130.68 9.59916 131.092 10.4501 131.092 11.5612C131.092 12.827 130.566 13.8045 129.512 14.4937C128.473 15.1828 127.057 15.5274 125.263 15.5274H117V0.759494H125.178C126.801 0.759494 128.103 1.09001 129.085 1.75105C130.067 2.39803 130.559 3.33333 130.559 4.55696C130.559 6.55415 129.192 7.68636 126.459 7.95359ZM126.758 6.39241C127.199 6.05485 127.42 5.59775 127.42 5.0211C127.42 4.44444 127.199 3.99437 126.758 3.67089C126.331 3.33333 125.726 3.16456 124.943 3.16456H120.16V6.87764H124.943C125.712 6.87764 126.317 6.71589 126.758 6.39241ZM124.964 13.1224C126.943 13.1224 127.932 12.4613 127.932 11.1392C127.932 9.83122 127 9.17722 125.135 9.17722H120.16V13.1224H124.964Z" fill="#802CD9"/>
<path d="M132.655 0H135.666V15.5274H132.655V0Z" fill="#802CD9"/>
<path d="M138.966 14.2405C137.785 13.2138 137.194 11.8003 137.194 10C137.194 8.19972 137.785 6.78622 138.966 5.75949C140.148 4.73277 141.742 4.21941 143.749 4.21941C145.756 4.21941 147.343 4.73277 148.511 5.75949C149.692 6.78622 150.283 8.19972 150.283 10C150.283 11.8003 149.692 13.2138 148.511 14.2405C147.343 15.2672 145.756 15.7806 143.749 15.7806C141.742 15.7806 140.148 15.2672 138.966 14.2405ZM141.144 7.48945C140.504 8.13643 140.183 8.97328 140.183 10C140.183 11.0267 140.504 11.8636 141.144 12.5105C141.785 13.1575 142.653 13.481 143.749 13.481C144.845 13.481 145.713 13.1575 146.354 12.5105C146.995 11.8636 147.315 11.0267 147.315 10C147.315 8.97328 146.995 8.13643 146.354 7.48945C145.713 6.84248 144.845 6.51899 143.749 6.51899C142.653 6.51899 141.785 6.84248 141.144 7.48945Z" fill="#802CD9"/>
<path d="M161.182 4.47257H164V13.8819C164 16.0197 163.502 17.5738 162.505 18.5443C161.509 19.5148 159.957 20 157.851 20C156.157 20 154.804 19.6765 153.794 19.0295C152.797 18.3966 152.249 17.4402 152.15 16.1603H154.968C155.196 17.2152 156.157 17.7426 157.851 17.7426C158.961 17.7426 159.758 17.4895 160.242 16.9831C160.74 16.4768 160.989 15.6962 160.989 14.6414V13.3966C160.036 14.6343 158.655 15.2532 156.847 15.2532C155.196 15.2532 153.858 14.7539 152.833 13.7553C151.808 12.7426 151.295 11.3994 151.295 9.72574C151.295 8.0661 151.808 6.73699 152.833 5.7384C153.872 4.72574 155.217 4.21941 156.868 4.21941C158.847 4.21941 160.285 4.92265 161.182 6.32911V4.47257ZM157.744 13.0591C158.797 13.0591 159.637 12.7637 160.263 12.173C160.904 11.5682 161.224 10.7806 161.224 9.81013C161.224 8.83966 160.904 8.05204 160.263 7.44726C159.637 6.82841 158.797 6.51899 157.744 6.51899C156.705 6.51899 155.865 6.82841 155.224 7.44726C154.598 8.05204 154.285 8.83966 154.285 9.81013C154.285 10.7806 154.598 11.5682 155.224 12.173C155.865 12.7637 156.705 13.0591 157.744 13.0591Z" fill="#802CD9"/>
</svg>
