<svg width="97" height="40" viewBox="0 0 97 40" fill="none" xmlns="http://www.w3.org/2000/svg">
<path d="M39.8615 12.9025C39.9239 13.6489 40.2549 14.246 40.8543 14.6939C41.4537 15.1418 42.3591 15.3657 43.5704 15.3657C44.1448 15.3657 44.6631 15.3222 45.1251 15.2351C45.5871 15.1355 45.9805 14.9676 46.3052 14.7312C46.6424 14.4824 46.8109 14.1714 46.8109 13.7982C46.8109 13.4125 46.6424 13.1015 46.3052 12.8651C45.968 12.6163 45.4186 12.3862 44.6568 12.1747L41.0978 11.2043C38.9124 10.6196 37.8198 9.4564 37.8198 7.71471C37.8198 6.45821 38.3255 5.51894 39.337 4.89691C40.361 4.27488 41.6473 3.96387 43.1957 3.96387C44.8566 3.96387 46.2178 4.32465 47.2792 5.0462C48.3532 5.75532 48.9526 6.76301 49.0775 8.06927L46.4738 8.1999C46.3989 7.57787 46.0804 7.0678 45.5185 6.6697C44.969 6.2716 44.176 6.07255 43.1395 6.07255C42.3403 6.07255 41.7097 6.20318 41.2477 6.46443C40.7981 6.71324 40.5733 7.0678 40.5733 7.52811C40.5733 8.21234 41.2102 8.72863 42.4839 9.07696L45.9118 9.99135C47.1356 10.3148 48.0472 10.7564 48.6466 11.3163C49.2585 11.8637 49.5645 12.6163 49.5645 13.5742C49.5645 14.8805 49.0275 15.8571 47.9536 16.504C46.8796 17.1509 45.4123 17.4744 43.5516 17.4744C41.5661 17.4744 40.0426 17.0949 38.9811 16.3361C37.9322 15.5647 37.3577 14.4451 37.2578 12.9771L39.8615 12.9025Z" fill="var(--fill-fill-brand-dark, #1A1A1A)"/>
<path d="M57.5382 7.24819C58.8244 7.24819 59.7985 7.60275 60.4603 8.31186C61.1346 9.00854 61.4718 10.0349 61.4718 11.3909V17.2505H58.8307V12.1933C58.8307 11.2727 58.6496 10.5823 58.2874 10.122C57.9253 9.64923 57.3384 9.41286 56.5267 9.41286C55.6151 9.41286 54.9095 9.69899 54.41 10.2713C53.923 10.8311 53.6795 11.5962 53.6795 12.5666V17.2505H51.0383V7.47212H53.4921V9.41286C54.2789 7.96975 55.6275 7.24819 57.5382 7.24819Z" fill="var(--fill-fill-brand-dark, #1A1A1A)"/>
<path d="M68.4341 7.24819C70.0451 7.24819 71.2751 7.60275 72.1243 8.31186C72.9859 9.00854 73.4167 10.0598 73.4167 11.4656V17.2505H70.9442V15.3657C70.095 16.7715 68.6839 17.4744 66.7108 17.4744C65.4745 17.4744 64.538 17.2069 63.9011 16.672C63.2642 16.137 62.9458 15.4341 62.9458 14.5633C62.9458 13.6053 63.3391 12.8838 64.1259 12.3986C64.9251 11.9134 66.1052 11.6086 67.6661 11.4842L70.7756 11.2416V10.9057C70.7756 10.3583 70.582 9.92293 70.1949 9.59947C69.8078 9.26357 69.2209 9.0894 68.4341 9.07696C66.9856 9.07696 66.1801 9.54971 66.0177 10.4952H63.5639C63.6139 9.71143 63.8761 9.07074 64.3506 8.57312C64.8377 8.07549 65.4183 7.73338 66.0927 7.54677C66.767 7.34772 67.5475 7.24819 68.4341 7.24819ZM67.4975 15.6456C68.4841 15.6456 69.2771 15.4092 69.8765 14.9365C70.4759 14.4638 70.7756 13.879 70.7756 13.1824V12.7905L68.0033 13.0144C66.3799 13.1513 65.5682 13.624 65.5682 14.4327C65.5682 14.8059 65.7305 15.1044 66.0552 15.3284C66.3799 15.5399 66.8607 15.6456 67.4975 15.6456Z" fill="var(--fill-fill-brand-dark, #1A1A1A)"/>
<path d="M81.7187 7.24819C83.1548 7.24819 84.3224 7.70849 85.2215 8.6291C86.1206 9.53727 86.5702 10.7813 86.5702 12.3613C86.5702 13.9412 86.1206 15.1915 85.2215 16.1121C84.3224 17.0203 83.161 17.4744 81.7374 17.4744C80.064 17.4744 78.8153 16.871 77.9911 15.6643V20.9826H75.3499V7.47212H77.8037V9.30089C78.603 7.93243 79.9079 7.24819 81.7187 7.24819ZM78.6841 14.6006C79.2336 15.1604 79.9766 15.4403 80.9132 15.4403C81.8498 15.4403 82.5928 15.1604 83.1423 14.6006C83.6917 14.0408 83.9665 13.2943 83.9665 12.3613C83.9665 11.4282 83.6917 10.6818 83.1423 10.122C82.5928 9.56215 81.8498 9.28223 80.9132 9.28223C79.9766 9.28223 79.2336 9.56215 78.6841 10.122C78.1472 10.6818 77.8787 11.4282 77.8787 12.3613C77.8787 13.2943 78.1472 14.0408 78.6841 14.6006Z" fill="var(--fill-fill-brand-dark, #1A1A1A)"/>
<path d="M61.6584 34.3061H58.7924L57.7435 33.2238C56.6196 34.0946 55.1648 34.5301 53.379 34.5301C51.6682 34.5301 50.3944 34.2253 49.5578 33.6157C48.7211 32.9936 48.3027 32.1663 48.3027 31.1338C48.3027 30.6859 48.3714 30.2878 48.5088 29.9395C48.6461 29.5911 48.8897 29.2614 49.2393 28.9504C49.6015 28.6394 49.9199 28.3968 50.1946 28.2227C50.4694 28.036 50.9064 27.7748 51.5058 27.4389L51.9367 27.1963L51.7306 26.9724C51.0688 26.2757 50.6005 25.691 50.3258 25.2182C50.051 24.7455 49.9137 24.2914 49.9137 23.856C49.9137 22.9727 50.282 22.2823 51.0188 21.7846C51.7556 21.2746 52.7359 21.0195 53.9597 21.0195C55.2085 21.0195 56.1825 21.287 56.8818 21.822C57.5936 22.3569 57.9495 23.1033 57.9495 24.0613C57.9495 24.6709 57.7685 25.212 57.4063 25.6848C57.0567 26.1451 56.4697 26.6178 55.6455 27.103L55.0087 27.4576L57.7247 30.2567C58.0245 29.6844 58.2305 29.0189 58.3429 28.26H60.3659C60.1411 29.5911 59.729 30.7357 59.1296 31.6936L61.6584 34.3061ZM53.6038 26.0207L53.7536 26.1699L54.2594 25.8714C55.2085 25.3364 55.683 24.7642 55.683 24.1546C55.683 23.744 55.5207 23.4206 55.196 23.1842C54.8838 22.9478 54.4717 22.8296 53.9597 22.8296C53.4852 22.8296 53.0855 22.9292 52.7609 23.1282C52.4487 23.3273 52.2926 23.6196 52.2926 24.0053C52.2926 24.279 52.3862 24.5464 52.5735 24.8077C52.7609 25.069 53.1043 25.4733 53.6038 26.0207ZM53.5101 32.6266C54.684 32.6266 55.6518 32.3592 56.4135 31.8242L53.2104 28.5212L52.5174 28.9131C51.9679 29.2241 51.562 29.5414 51.2998 29.8648C51.0376 30.1758 50.9064 30.5366 50.9064 30.9471C50.9064 31.4448 51.1187 31.8491 51.5433 32.1601C51.9679 32.4711 52.6235 32.6266 53.5101 32.6266Z" fill="var(--fill-fill-brand-dark, #1A1A1A)"/>
<path d="M68.7138 27.3643H75.1762V33.2611C73.1782 34.1071 71.1677 34.5301 69.1446 34.5301C66.7595 34.5301 64.9175 33.9267 63.6188 32.7199C62.3326 31.5008 61.6895 29.8524 61.6895 27.7748C61.6895 25.7096 62.2889 24.0675 63.4877 22.8483C64.699 21.6291 66.3849 21.0195 68.5452 21.0195C70.2561 21.0195 71.6672 21.399 72.7786 22.1578C73.89 22.9043 74.5831 23.9182 74.8578 25.1996L72.1979 25.4049C71.9731 24.7579 71.5298 24.2417 70.868 23.856C70.2061 23.4579 69.4319 23.2588 68.5452 23.2588C67.2215 23.2588 66.21 23.688 65.5107 24.5464C64.8114 25.3924 64.4617 26.4685 64.4617 27.7748C64.4617 29.1308 64.8676 30.2256 65.6793 31.0591C66.5035 31.8802 67.6836 32.2907 69.2196 32.2907C70.3185 32.2907 71.4611 32.1041 72.6475 31.7309V29.2117H68.7138V27.3643Z" fill="var(--fill-fill-brand-dark, #1A1A1A)"/>
<path d="M87.6975 29.9021V30.2007H79.1184C79.3681 31.8678 80.4483 32.7013 82.3589 32.7013C83.5952 32.7013 84.4694 32.3032 84.9814 31.507L87.5476 31.6376C87.2354 32.5582 86.636 33.2735 85.7494 33.7836C84.8627 34.2812 83.7326 34.5301 82.3589 34.5301C80.5357 34.5301 79.0934 34.1071 78.0319 33.2611C76.983 32.4027 76.4585 31.1213 76.4585 29.417C76.4585 27.725 76.9767 26.4499 78.0132 25.5915C79.0622 24.7331 80.467 24.3039 82.2278 24.3039C85.8742 24.3039 87.6975 26.1699 87.6975 29.9021ZM82.2278 26.1326C81.3911 26.1326 80.6981 26.3317 80.1486 26.7298C79.6116 27.1279 79.2745 27.7312 79.1371 28.5399H85.0938C85.0313 27.7935 84.7503 27.2087 84.2508 26.7858C83.7513 26.3503 83.077 26.1326 82.2278 26.1326Z" fill="var(--fill-fill-brand-dark, #1A1A1A)"/>
<path d="M95.9044 26.5058H93.1508V30.7792C93.1508 31.3639 93.2445 31.7682 93.4318 31.9922C93.6316 32.2161 94.0125 32.3281 94.5745 32.3281C94.8617 32.3281 95.305 32.2907 95.9044 32.2161V34.3434C95.28 34.443 94.6556 34.4927 94.0312 34.4927C92.7949 34.4927 91.8958 34.2439 91.3339 33.7463C90.7844 33.2362 90.5097 32.3778 90.5097 31.1711V26.5058H88.112V24.5651H89.8728C90.16 24.5651 90.3598 24.5153 90.4722 24.4158C90.5971 24.3039 90.6595 24.1235 90.6595 23.8747V22.2325H93.1508V24.5278H95.9044V26.5058Z" fill="var(--fill-fill-brand-dark, #1A1A1A)"/>
<g class="large-circle">
  <path d="M19.2108 2.52441C15.2292 2.52441 11.3657 3.87749 8.25418 6.3617C5.14261 8.84592 2.96762 12.3138 2.08594 16.1966" stroke="#802CD9" stroke-width="3.88186" stroke-linecap="round"/>
  <path d="M19.2109 37.6461C23.3439 37.6461 27.3444 36.1885 30.5085 33.5296C33.6726 30.8707 35.7975 27.181 36.5093 23.1099" stroke="#802CD9" stroke-width="3.88186" stroke-linecap="round"/>
</g>
<g class="small-circle">
  <path d="M23.1344 8.51948C21.1581 7.84906 19.0431 7.6962 16.9909 8.07549C14.9388 8.45477 13.0181 9.35355 11.4121 10.6861" stroke="#FF6600" stroke-width="3.88186" stroke-linecap="round"/>
  <path d="M15.2832 31.6494C18.0956 32.6048 21.1597 32.5026 23.9022 31.3619C26.6446 30.2212 28.8774 28.1202 30.1826 25.4521" stroke="#FF6600" stroke-width="3.88186" stroke-linecap="round"/>
</g>
<ellipse cx="11.5525" cy="20.0847" rx="4.0271" ry="4.0271" stroke="#802CD9" stroke-width="3.88186"/>
<path d="M22.709 20.0508H30.6311" stroke="#FF6600" stroke-width="3.88186" stroke-linecap="round"/>
</svg>
