<svg width="80" height="80" viewBox="0 0 80 80" fill="none" xmlns="http://www.w3.org/2000/svg">
<g clip-path="url(#clip0_2024_37822)">
<path d="M17.9171 23.6401L17.9166 23.64C16.734 23.3681 15.9873 22.1922 16.2604 21.0075L16.2605 21.0073C18.7515 10.2342 28.4222 2.20369 39.9694 2.20369C41.1864 2.20369 42.1713 3.18667 42.1713 4.40292C42.1713 5.61628 41.1866 6.60215 39.9694 6.60215C30.5121 6.60215 22.5943 13.1779 20.5521 21.9993L17.9171 23.6401ZM17.9171 23.6401C19.0963 23.9088 20.2788 23.1815 20.552 21.9994L17.9171 23.6401ZM59.5935 29.9954L59.5935 29.9955C57.9441 39.3213 49.7828 46.4045 39.9694 46.4045C38.755 46.4045 37.7675 47.3902 37.7675 48.6038C37.7675 49.8202 38.7552 50.803 39.9694 50.803C51.9566 50.803 61.9199 42.1481 63.9306 30.7531C64.1429 29.5569 63.3392 28.4169 62.1406 28.2082C60.9438 27.9995 59.8055 28.8012 59.5935 29.9954ZM37.6248 26.5047C37.6248 22.4473 34.3337 19.1583 30.2713 19.1583C26.2091 19.1583 22.9152 22.4472 22.9152 26.5047C22.9152 30.5623 26.2093 33.8483 30.2713 33.8483C34.3335 33.8483 37.6248 30.5621 37.6248 26.5047ZM30.2713 23.5568C31.9019 23.5568 33.221 24.8767 33.221 26.5047C33.221 28.1298 31.902 29.4499 30.2713 29.4499C28.6404 29.4499 27.319 28.1295 27.319 26.5047C27.319 24.877 28.6405 23.5568 30.2713 23.5568Z" fill="#802CD9" stroke="#802CD9" stroke-width="0.544762"/>
<path d="M33.1283 40.319L33.1281 40.3197C32.7557 41.4717 33.3851 42.7149 34.5399 43.0903C36.2492 43.6475 38.0744 43.9517 39.9694 43.9517C46.8259 43.9517 52.7572 40.007 55.6175 34.27C56.1601 33.1832 55.7141 31.8617 54.6273 31.3205L54.627 31.3204C53.5373 30.7793 52.2166 31.2205 51.6743 32.3096C49.5343 36.6018 45.0961 39.5533 39.9694 39.5533C38.5497 39.5533 37.1821 39.3248 35.9003 38.9067L35.9 38.9067C34.7453 38.5314 33.5039 39.1668 33.1283 40.319ZM28.8615 13.0371L28.8615 13.0371C27.9273 13.8064 27.7976 15.1948 28.567 16.1267C29.3357 17.0604 30.7224 17.2038 31.6598 16.4343L31.6601 16.4341C33.9196 14.575 36.813 13.4562 39.9694 13.4562C41.3891 13.4562 42.7567 13.6846 44.0388 14.1001C45.1943 14.4784 46.4353 13.8392 46.8105 12.6877C47.1863 11.5347 46.5532 10.2918 45.3992 9.91659C43.6896 9.35919 41.8643 9.0577 39.9694 9.0577C35.7503 9.0577 31.881 10.5521 28.8615 13.0371ZM44.2584 28.7039H54.2484C55.4657 28.7039 56.4503 27.7181 56.4503 26.5047C56.4503 25.2885 55.4654 24.3055 54.2484 24.3055H44.2584C43.0443 24.3055 42.0565 25.2882 42.0565 26.5047C42.0565 27.7183 43.0441 28.7039 44.2584 28.7039Z" fill="#FF6600" stroke="#FF6600" stroke-width="0.544762"/>
</g>
<path d="M4.049 70.107C4.119 70.947 4.49 71.619 5.162 72.123C5.834 72.627 6.849 72.879 8.207 72.879C8.851 72.879 9.432 72.83 9.95 72.732C10.468 72.62 10.909 72.431 11.273 72.165C11.651 71.885 11.84 71.535 11.84 71.115C11.84 70.681 11.651 70.331 11.273 70.065C10.895 69.785 10.279 69.526 9.425 69.288L5.435 68.196C2.985 67.538 1.76 66.229 1.76 64.269C1.76 62.855 2.327 61.798 3.461 61.098C4.609 60.398 6.051 60.048 7.787 60.048C9.649 60.048 11.175 60.454 12.365 61.266C13.569 62.064 14.241 63.198 14.381 64.668L11.462 64.815C11.378 64.115 11.021 63.541 10.391 63.093C9.775 62.645 8.886 62.421 7.724 62.421C6.828 62.421 6.121 62.568 5.603 62.862C5.099 63.142 4.847 63.541 4.847 64.059C4.847 64.829 5.561 65.41 6.989 65.802L10.832 66.831C12.204 67.195 13.226 67.692 13.898 68.322C14.584 68.938 14.927 69.785 14.927 70.863C14.927 72.333 14.325 73.432 13.121 74.16C11.917 74.888 10.272 75.252 8.186 75.252C5.96 75.252 4.252 74.825 3.062 73.971C1.886 73.103 1.242 71.843 1.13 70.191L4.049 70.107ZM23.6563 63.744C25.0983 63.744 26.1903 64.143 26.9323 64.941C27.6883 65.725 28.0663 66.88 28.0663 68.406V75H25.1053V69.309C25.1053 68.273 24.9023 67.496 24.4963 66.978C24.0903 66.446 23.4323 66.18 22.5223 66.18C21.5003 66.18 20.7093 66.502 20.1493 67.146C19.6033 67.776 19.3303 68.637 19.3303 69.729V75H16.3693V63.996H19.1203V66.18C20.0023 64.556 21.5143 63.744 23.6563 63.744ZM35.6617 63.744C37.4677 63.744 38.8467 64.143 39.7987 64.941C40.7647 65.725 41.2477 66.908 41.2477 68.49V75H38.4757V72.879C37.5237 74.461 35.9417 75.252 33.7297 75.252C32.3437 75.252 31.2937 74.951 30.5797 74.349C29.8657 73.747 29.5087 72.956 29.5087 71.976C29.5087 70.898 29.9497 70.086 30.8317 69.54C31.7277 68.994 33.0507 68.651 34.8007 68.511L38.2867 68.238V67.86C38.2867 67.244 38.0697 66.754 37.6357 66.39C37.2017 66.012 36.5437 65.816 35.6617 65.802C34.0377 65.802 33.1347 66.334 32.9527 67.398H30.2017C30.2577 66.516 30.5517 65.795 31.0837 65.235C31.6297 64.675 32.2807 64.29 33.0367 64.08C33.7927 63.856 34.6677 63.744 35.6617 63.744ZM34.6117 73.194C35.7177 73.194 36.6067 72.928 37.2787 72.396C37.9507 71.864 38.2867 71.206 38.2867 70.422V69.981L35.1787 70.233C33.3587 70.387 32.4487 70.919 32.4487 71.829C32.4487 72.249 32.6307 72.585 32.9947 72.837C33.3587 73.075 33.8977 73.194 34.6117 73.194ZM50.345 63.744C51.955 63.744 53.264 64.262 54.272 65.298C55.28 66.32 55.784 67.72 55.784 69.498C55.784 71.276 55.28 72.683 54.272 73.719C53.264 74.741 51.962 75.252 50.366 75.252C48.49 75.252 47.09 74.573 46.166 73.215V79.2H43.205V63.996H45.956V66.054C46.852 64.514 48.315 63.744 50.345 63.744ZM46.943 72.018C47.559 72.648 48.392 72.963 49.442 72.963C50.492 72.963 51.325 72.648 51.941 72.018C52.557 71.388 52.865 70.548 52.865 69.498C52.865 68.448 52.557 67.608 51.941 66.978C51.325 66.348 50.492 66.033 49.442 66.033C48.392 66.033 47.559 66.348 46.943 66.978C46.341 67.608 46.04 68.448 46.04 69.498C46.04 70.548 46.341 71.388 46.943 72.018ZM57.7401 75V60.3H60.8481V75H57.7401ZM70.5166 60.3C72.9526 60.3 74.8496 60.951 76.2076 62.253C77.5656 63.555 78.2446 65.354 78.2446 67.65C78.2446 69.946 77.5656 71.745 76.2076 73.047C74.8496 74.349 72.9526 75 70.5166 75H63.7546V60.3H70.5166ZM70.1806 72.459C71.7906 72.459 73.0156 72.032 73.8556 71.178C74.7096 70.324 75.1366 69.148 75.1366 67.65C75.1366 66.152 74.7096 64.976 73.8556 64.122C73.0156 63.268 71.7906 62.841 70.1806 62.841H66.8626V72.459H70.1806Z" fill="#1A1A1A"/>
<defs>
<clipPath id="clip0_2024_37822">
<rect width="52" height="52" fill="white" transform="translate(14)"/>
</clipPath>
</defs>
</svg>
