<svg width="24" height="24" viewBox="0 0 24 24" fill="none" xmlns="http://www.w3.org/2000/svg">
<g clip-path="url(#clip0_1773_24670)">
<mask id="mask0_1773_24670" style="mask-type:alpha" maskUnits="userSpaceOnUse" x="0" y="0" width="24" height="24">
<path d="M13.3276 21.0273C13.8601 21.0273 14.2764 20.824 14.7895 20.3399L22.4575 13.1464C22.835 12.7882 22.9803 12.3719 22.9803 12.0137C22.9803 11.6458 22.835 11.2391 22.4575 10.8809L14.7895 3.73581C14.228 3.213 13.8601 3 13.347 3C12.5724 3 12.0206 3.60027 12.0206 4.35544V7.80213H11.7785C5.09815 7.80213 2 12.0911 2 19.12C2 20.3496 2.52281 20.9886 3.20053 20.9886C3.71366 20.9886 4.18807 20.824 4.56565 20.1173C6.08568 17.2902 8.2447 16.2543 11.7785 16.2543H12.0206V19.7203C12.0206 20.4755 12.5724 21.0273 13.3276 21.0273ZM13.9472 18.5295C13.8601 18.5295 13.802 18.4714 13.802 18.3746V14.802C13.802 14.5793 13.7052 14.4825 13.4825 14.4825H12.2432C7.80903 14.4825 4.98197 15.8864 3.82016 18.3068C3.79112 18.3649 3.76207 18.3939 3.72334 18.3939C3.68462 18.3939 3.65557 18.3649 3.65557 18.2971C3.81048 13.6789 6.00823 9.5642 12.2432 9.5642H13.4825C13.7052 9.5642 13.802 9.46738 13.802 9.2447V5.58502C13.802 5.49788 13.8601 5.43979 13.9472 5.43979C14.0053 5.43979 14.0634 5.46884 14.1118 5.51724L20.7244 11.8297C20.7922 11.9072 20.8212 11.9556 20.8212 12.0137C20.8212 12.0718 20.8019 12.1202 20.7244 12.1976L14.1021 18.452C14.0537 18.5004 13.9956 18.5295 13.9472 18.5295Z" fill="#802CD9"/>
<path fill-rule="evenodd" clip-rule="evenodd" d="M22.4576 13.1466L14.7897 20.3401C14.2766 20.8242 13.8602 21.0275 13.3278 21.0275C12.5726 21.0275 12.0207 20.4756 12.0207 19.7205V16.2544H11.7787C8.24486 16.2544 6.08584 17.2904 4.56581 20.1174C4.18822 20.8242 3.71382 20.9888 3.20069 20.9888C2.52297 20.9888 2.00016 20.3498 2.00016 19.1202C2.00016 12.0913 5.0983 7.80228 11.7787 7.80228H12.0207V4.3556C12.0207 3.60042 12.5726 3.00016 13.3471 3.00016C13.8602 3.00016 14.2282 3.21315 14.7897 3.73597L22.4576 10.8811C22.8352 11.2393 22.9804 11.6459 22.9804 12.0138C22.9804 12.3721 22.8352 12.7884 22.4576 13.1466ZM11.9307 7.71228V4.3556C11.9307 3.55418 12.5195 2.91016 13.3471 2.91016C13.895 2.91016 14.2844 3.14253 14.851 3.6701L22.519 10.8152C22.9141 11.1901 23.0704 11.6208 23.0704 12.0138C23.0704 12.3969 22.9149 12.8368 22.5196 13.2119L14.8515 20.4056C14.3282 20.8992 13.8909 21.1175 13.3278 21.1175C12.5229 21.1175 11.9307 20.5253 11.9307 19.7205V16.3444H11.7787C10.0198 16.3444 8.61266 16.6024 7.45877 17.2055C6.30646 17.8079 5.39852 18.7588 4.64519 20.1598M11.9307 7.71228H11.7787C8.41803 7.71228 5.94523 8.79205 4.31486 10.7681C2.68696 12.7412 1.91016 15.5944 1.91016 19.1202C1.91016 19.7463 2.04308 20.2333 2.27211 20.5666C2.50297 20.9025 2.8299 21.0788 3.20069 21.0788C3.46686 21.0788 3.73049 21.0361 3.97824 20.8966C4.22623 20.7569 4.45026 20.5246 4.64519 20.1598M14.112 5.5174C14.0636 5.46899 14.0055 5.43995 13.9474 5.43995C13.8602 5.43995 13.8022 5.49804 13.8022 5.58517V9.24486C13.8022 9.46754 13.7053 9.56436 13.4827 9.56436H12.2434C6.00838 9.56436 3.81064 13.6791 3.65573 18.2973C3.65573 18.365 3.68477 18.3941 3.7235 18.3941C3.76223 18.3941 3.79127 18.365 3.82032 18.3069C4.98212 15.8865 7.80918 14.4827 12.2434 14.4827H13.4827C13.7053 14.4827 13.8022 14.5795 13.8022 14.8022V18.3747C13.8022 18.4715 13.8602 18.5296 13.9474 18.5296C13.9958 18.5296 14.0539 18.5006 14.1023 18.4522L20.7246 12.1978C20.802 12.1203 20.8214 12.0719 20.8214 12.0138C20.8214 11.9557 20.7924 11.9073 20.7246 11.8299L14.112 5.5174ZM20.6595 11.8921L14.0483 5.58106C14.0116 5.54431 13.9751 5.52995 13.9474 5.52995C13.9243 5.52995 13.912 5.53726 13.9057 5.54352C13.8995 5.54979 13.8922 5.56206 13.8922 5.58517V9.24486C13.8922 9.36692 13.8659 9.47538 13.7896 9.55175C13.7132 9.62812 13.6047 9.65436 13.4827 9.65436H12.2434C9.14741 9.65436 7.06651 10.6749 5.73845 12.2569C4.41732 13.8306 3.83116 15.9719 3.74741 18.2509C4.93621 15.7953 7.80456 14.3927 12.2434 14.3927H13.4827C13.6047 14.3927 13.7132 14.4189 13.7896 14.4953C13.8659 14.5716 13.8922 14.6801 13.8922 14.8022V18.3747C13.8922 18.4051 13.901 18.4198 13.9072 18.4263C13.913 18.4325 13.9244 18.4396 13.9474 18.4396C13.9635 18.4396 14.0001 18.4271 14.0387 18.3885L14.0405 18.3867L20.6618 12.1333C20.6966 12.0984 20.7132 12.075 20.7215 12.0583C20.7289 12.0436 20.7314 12.0312 20.7314 12.0138C20.7314 11.9921 20.7241 11.9665 20.6595 11.8921Z" fill="#802CD9"/>
</mask>
<g mask="url(#mask0_1773_24670)">
<rect width="24" height="24" fill="var(--icon-color, #6B7199)"/>
</g>
</g>
<defs>
<clipPath id="clip0_1773_24670">
<rect width="24" height="24" fill="white"/>
</clipPath>
</defs>
</svg>