<svg width="40" height="40" viewBox="0 0 40 40" fill="none" xmlns="http://www.w3.org/2000/svg">
<g id="twitter" clip-path="url(#clip0_1230_23355)">
<g id="Dark_Blue">
<path id="Vector" d="M20.002 39.9995C31.0476 39.9995 40.002 31.0452 40.002 19.9995C40.002 8.95382 31.0476 -0.000488281 20.002 -0.000488281C8.95626 -0.000488281 0.00195312 8.95382 0.00195312 19.9995C0.00195312 31.0452 8.95626 39.9995 20.002 39.9995Z" fill="#1B9DF0"/>
</g>
<g id="Logo__x2014__FIXED">
<path id="Vector_2" d="M30.0067 16.1489L29.9738 16.1728L29.9758 16.2135C29.9857 16.4112 29.9857 16.6193 29.9857 16.8297C29.9857 23.1675 25.1607 30.4747 16.3407 30.4747C13.751 30.4747 11.3258 29.7456 9.28279 28.4795C9.55973 28.5043 9.83782 28.5147 10.1207 28.5147C12.398 28.5147 14.4942 27.7387 16.1569 26.4388L16.3233 26.3087L16.1121 26.3047C14.0791 26.2662 12.3572 24.9545 11.722 23.1267C11.985 23.172 12.2491 23.1947 12.5207 23.1947C12.9675 23.1947 13.4041 23.1338 13.8106 23.022L13.8057 22.8762C11.6504 22.4374 10.0269 20.5594 9.99615 18.2854C10.6286 18.6152 11.3409 18.8155 12.0988 18.8347L12.36 18.8413L12.1421 18.6972C10.8624 17.8506 10.0257 16.3938 10.0257 14.7497C10.0257 13.9223 10.2412 13.1397 10.6123 12.462C13.0045 15.3501 16.5439 17.2455 20.537 17.4446L20.6387 17.4497L20.6133 17.351C20.5252 17.0081 20.4857 16.6445 20.4857 16.2697C20.4857 13.6511 22.6121 11.5247 25.2307 11.5247C26.5994 11.5247 27.8297 12.0957 28.696 13.021L28.7245 13.0514L28.7654 13.0433C29.8057 12.8352 30.7839 12.4673 31.6751 11.9647C31.2992 12.9932 30.5809 13.8481 29.6521 14.4054L29.6998 14.5442C30.5971 14.4343 31.453 14.2079 32.2522 13.88C31.632 14.7547 30.8704 15.5242 30.0067 16.1489Z" fill="white" stroke="white" stroke-width="0.15"/>
</g>
</g>
<defs>
<clipPath id="clip0_1230_23355">
<rect width="40" height="40" fill="white" transform="translate(0 0.000488281)"/>
</clipPath>
</defs>
</svg>
