<svg width="24" height="24" viewBox="0 0 24 24" fill="none" xmlns="http://www.w3.org/2000/svg">
<g clip-path="url(#clip0_2040_16714)">
<mask id="mask0_2040_16714" style="mask-type:alpha" maskUnits="userSpaceOnUse" x="0" y="0" width="24" height="24">
<path fill-rule="evenodd" clip-rule="evenodd" d="M11.5001 4C7.91021 4 5.00006 6.91015 5.00006 10.5C5.00006 11.261 5.13041 11.9894 5.36918 12.6654C6.00222 14.4415 5.61321 15.9475 5.0533 17H8.17399C8.06025 16.5185 8.00006 16.0163 8.00006 15.5C8.00006 11.9101 10.9102 9 14.5001 9C15.781 9 16.9754 9.37052 17.9819 10.0102C17.7315 6.64915 14.9251 4 11.5001 4ZM19.8906 11.8667C19.9627 11.4212 20.0001 10.9647 20.0001 10.5C20.0001 5.80558 16.1945 2 11.5001 2C6.80564 2 3.00006 5.80558 3.00006 10.5C3.00006 11.4917 3.1703 12.4458 3.48398 13.3332L3.48494 13.3359C3.90109 14.5027 3.63254 15.4491 3.24453 16.1394C3.04695 16.491 2.82011 16.77 2.64266 16.9603C2.55472 17.0546 2.48115 17.1248 2.43283 17.1687C2.40874 17.1906 2.39114 17.2058 2.38144 17.214L2.37371 17.2205L2.3753 17.2192L2.37641 17.2183L2.37702 17.2178C2.37577 17.2188 2.37451 17.2198 2.37326 17.2208C2.04372 17.4859 1.91641 17.9299 2.05592 18.3296C2.19607 18.7311 2.57481 19 3.00006 19H9.02187C10.1769 20.8042 12.1988 22 14.5001 22L21.0001 22C21.4045 22 21.7692 21.7564 21.9239 21.3827C22.0779 21.0111 21.9941 20.5836 21.7118 20.2976C21.7108 20.2966 21.7098 20.2956 21.7088 20.2946M19.8906 11.8667C20.5911 12.904 21.0001 14.1542 21.0001 15.5C21.0001 16.4087 20.813 17.2759 20.4748 18.0634C20.7212 18.7847 21.0211 19.3337 21.2648 19.708C21.4041 19.9218 21.5246 20.078 21.6056 20.176C21.646 20.225 21.6765 20.2593 21.6944 20.2788C21.7033 20.2886 21.709 20.2947 21.7113 20.297M18.4765 18.3828C18.3684 18.1216 18.3712 17.8163 18.5099 17.5448C18.823 16.9324 19.0001 16.2383 19.0001 15.5C19.0001 13.0147 16.9853 11 14.5001 11C12.0148 11 10.0001 13.0147 10.0001 15.5C10.0001 17.9853 12.0148 20 14.5001 20L19.1272 20C18.897 19.5496 18.6677 19.0103 18.4765 18.3828Z" fill="#802CD9"/>
</mask>
<g mask="url(#mask0_2040_16714)">
<rect width="24" height="24" fill="#802CD9"/>
</g>
</g>
<defs>
<clipPath id="clip0_2040_16714">
<rect width="24" height="24" fill="white"/>
</clipPath>
</defs>
</svg>
