<svg width="68" height="68" viewBox="0 0 68 68" fill="none" xmlns="http://www.w3.org/2000/svg">
<g id="circle-play">
<path id="Icon (Stroke)" fill-rule="evenodd" clip-rule="evenodd" d="M33.9994 11.3337C21.4809 11.3337 11.3327 21.4819 11.3327 34.0003C11.3327 46.5188 21.4809 56.667 33.9994 56.667C46.5178 56.667 56.666 46.5188 56.666 34.0003C56.666 21.4819 46.5178 11.3337 33.9994 11.3337ZM5.66602 34.0003C5.66602 18.3523 18.3513 5.66699 33.9994 5.66699C49.6474 5.66699 62.3327 18.3523 62.3327 34.0003C62.3327 49.6484 49.6474 62.3337 33.9994 62.3337C18.3513 62.3337 5.66602 49.6484 5.66602 34.0003ZM33.3483 22.6055C33.3751 22.6233 33.4017 22.6411 33.4283 22.6588L44.0754 29.7569C44.099 29.7726 44.1228 29.7885 44.1468 29.8045C44.5561 30.0772 45.0072 30.3777 45.3671 30.668C45.7527 30.979 46.3509 31.5195 46.7046 32.3723C47.1368 33.4146 47.1368 34.5861 46.7046 35.6284C46.3509 36.4811 45.7527 37.0217 45.3671 37.3327C45.0072 37.6229 44.5562 37.9234 44.1469 38.1961C44.1229 38.2121 44.099 38.228 44.0754 38.2438L33.4283 45.3418C33.4017 45.3595 33.375 45.3773 33.3483 45.3952C32.8466 45.7298 32.3217 46.0799 31.8595 46.3304C31.3979 46.5806 30.5518 46.9921 29.496 46.929C28.2556 46.855 27.1097 46.2417 26.3599 45.2506C25.7219 44.4072 25.5949 43.4749 25.547 42.9521C25.4991 42.4285 25.4992 41.7975 25.4993 41.1944C25.4993 41.1623 25.4994 41.1303 25.4994 41.0984V26.9023C25.4994 26.8704 25.4993 26.8383 25.4993 26.8062C25.4992 26.2032 25.4991 25.5722 25.547 25.0486C25.5949 24.5258 25.7219 23.5935 26.3599 22.75C27.1097 21.759 28.2556 21.1457 29.496 21.0716C30.5518 21.0086 31.3979 21.4201 31.8595 21.6703C32.3217 21.9208 32.8467 22.2709 33.3483 22.6055ZM31.166 27.9611V40.0395L40.2248 34.0003L31.166 27.9611ZM41.8341 35.0992C41.834 35.0992 41.8333 35.0985 41.832 35.0974L41.8341 35.0992Z" fill="#FFF"/>
</g>
</svg>
