<svg width="24" height="24" viewBox="0 0 24 24" fill="none" xmlns="http://www.w3.org/2000/svg">
<g clip-path="url(#clip0_2040_16734)">
<mask id="mask0_2040_16734" style="mask-type:alpha" maskUnits="userSpaceOnUse" x="0" y="0" width="24" height="24">
<path fill-rule="evenodd" clip-rule="evenodd" d="M7.16146 3H16.8385C17.3657 2.99998 17.8205 2.99997 18.195 3.03057C18.5904 3.06287 18.9836 3.13419 19.362 3.32698C19.9265 3.6146 20.3854 4.07354 20.673 4.63803C20.8658 5.01641 20.9371 5.40963 20.9694 5.80497C21 6.17954 21 6.6343 21 7.16144V12C21 12.5523 20.5523 13 20 13C19.4477 13 19 12.5523 19 12V7.2C19 6.62345 18.9992 6.25118 18.9761 5.96784C18.9539 5.69617 18.9162 5.59546 18.891 5.54601C18.7951 5.35785 18.6422 5.20487 18.454 5.109C18.4045 5.0838 18.3038 5.04612 18.0322 5.02393C17.7488 5.00078 17.3766 5 16.8 5H7.2C6.62345 5 6.25117 5.00078 5.96784 5.02393C5.69617 5.04612 5.59546 5.0838 5.54601 5.109C5.35785 5.20487 5.20487 5.35785 5.109 5.54601C5.0838 5.59546 5.04612 5.69617 5.02393 5.96784C5.00078 6.25117 5 6.62345 5 7.2V16.8C5 17.3766 5.00078 17.7488 5.02393 18.0322C5.04612 18.3038 5.0838 18.4045 5.109 18.454C5.20487 18.6422 5.35785 18.7951 5.54601 18.891C5.59546 18.9162 5.69617 18.9539 5.96784 18.9761C6.0055 18.9792 6.04473 18.9818 6.0858 18.9842C6.09627 18.9228 6.10768 18.8618 6.12001 18.8011C6.67602 16.062 9.09609 14 12 14C12.5523 14 13 14.4477 13 15C13 15.5523 12.5523 16 12 16C10.1369 16 8.56946 17.2747 8.12577 19H11C11.5523 19 12 19.4477 12 20C12 20.5523 11.5523 21 11 21H7.16144C7.10925 21 7.05778 21 7.00702 21C7.00469 21 7.00235 21 7 21C6.99724 21 6.99449 21 6.99173 21C6.53616 20.9997 6.13873 20.9967 5.80497 20.9694C5.40963 20.9371 5.01641 20.8658 4.63803 20.673C4.07354 20.3854 3.6146 19.9265 3.32698 19.362C3.13419 18.9836 3.06287 18.5904 3.03057 18.195C2.99997 17.8205 2.99998 17.3657 3 16.8385V7.16146C2.99998 6.63431 2.99997 6.17955 3.03057 5.80497C3.06287 5.40963 3.13419 5.01641 3.32698 4.63803C3.6146 4.07354 4.07354 3.6146 4.63803 3.32698C5.01641 3.13419 5.40963 3.06287 5.80497 3.03057C6.17955 2.99997 6.63431 2.99998 7.16146 3ZM12 9C11.4477 9 11 9.44772 11 10C11 10.5523 11.4477 11 12 11C12.5523 11 13 10.5523 13 10C13 9.44772 12.5523 9 12 9ZM9 10C9 8.34315 10.3431 7 12 7C13.6569 7 15 8.34315 15 10C15 11.6569 13.6569 13 12 13C10.3431 13 9 11.6569 9 10ZM21.7071 16.7071L17.7071 20.7071C17.3166 21.0976 16.6834 21.0976 16.2929 20.7071L14.2929 18.7071C13.9024 18.3166 13.9024 17.6834 14.2929 17.2929C14.6834 16.9024 15.3166 16.9024 15.7071 17.2929L17 18.5858L20.2929 15.2929C20.6834 14.9024 21.3166 14.9024 21.7071 15.2929C22.0976 15.6834 22.0976 16.3166 21.7071 16.7071Z" fill="black"/>
</mask>
<g mask="url(#mask0_2040_16734)">
<rect width="24" height="24" fill="#802CD9"/>
</g>
</g>
<defs>
<clipPath id="clip0_2040_16734">
<rect width="24" height="24" fill="white"/>
</clipPath>
</defs>
</svg>
