<svg width="40" height="40" viewBox="0 0 40 40" fill="none" xmlns="http://www.w3.org/2000/svg">
<g clip-path="url(#clip0_1920_34438)">
<path d="M20 40C31.0457 40 40 31.0457 40 20C40 8.95431 31.0457 0 20 0C8.95431 0 0 8.95431 0 20C0 31.0457 8.95431 40 20 40Z" fill="#802CD9"/>
<g clip-path="url(#clip1_1920_34438)">
<mask id="mask0_1920_34438" style="mask-type:alpha" maskUnits="userSpaceOnUse" x="8" y="8" width="24" height="24">
<path fill-rule="evenodd" clip-rule="evenodd" d="M25.9494 14.7323C25.3306 14.375 24.5683 14.375 23.9495 14.7323C23.8573 14.7855 23.7367 14.8752 23.517 15.0804C23.1133 15.4573 22.4805 15.4356 22.1036 15.0319C21.7267 14.6282 21.7484 13.9954 22.1521 13.6185C22.4119 13.3759 22.6623 13.166 22.9495 13.0003C24.1871 12.2857 25.7118 12.2857 26.9495 13.0003C27.4082 13.2651 27.8256 13.683 28.3877 14.2457C28.4197 14.2777 28.4521 14.3101 28.485 14.343C28.5179 14.3759 28.5503 14.4083 28.5823 14.4403C29.145 15.0024 29.5629 15.4198 29.8278 15.8786C30.5423 17.1162 30.5423 18.641 29.8278 19.8786C29.5629 20.3373 29.145 20.7547 28.5823 21.3169C28.5503 21.3488 28.5179 21.3812 28.485 21.4141L25.6566 24.2425C25.6237 24.2754 25.5913 24.3079 25.5593 24.3398C24.9972 24.9026 24.5798 25.3205 24.121 25.5853C22.8834 26.2998 21.3586 26.2998 20.121 25.5853C19.6623 25.3205 19.2449 24.9026 18.6827 24.3398C18.6508 24.3079 18.6184 24.2754 18.5855 24.2425C18.5526 24.2096 18.5201 24.1772 18.4882 24.1453C17.9254 23.5832 17.5076 23.1657 17.2427 22.707C16.5282 21.4694 16.5282 19.9446 17.2427 18.707C17.4085 18.4199 17.6184 18.1694 17.8609 17.9096C18.2378 17.5059 18.8706 17.4842 19.2743 17.8611C19.678 18.238 19.6997 18.8708 19.3228 19.2745C19.1177 19.4942 19.0279 19.6149 18.9748 19.707C18.6175 20.3258 18.6175 21.0882 18.9748 21.707C19.0898 21.9063 19.2966 22.1252 19.9997 22.8283C20.7028 23.5314 20.9217 23.7382 21.121 23.8533C21.7398 24.2105 22.5022 24.2105 23.121 23.8533C23.3203 23.7382 23.5392 23.5314 24.2423 22.8283L27.0708 19.9999C27.7739 19.2968 27.9807 19.0779 28.0957 18.8786C28.453 18.2598 28.453 17.4974 28.0957 16.8786C27.9807 16.6793 27.7739 16.4604 27.0708 15.7572C26.3677 15.0541 26.1487 14.8474 25.9494 14.7323ZM18.8784 16.1465C18.2596 15.7893 17.4972 15.7893 16.8784 16.1465C16.6791 16.2616 16.4602 16.4683 15.7571 17.1715L12.9286 19.9999C12.2255 20.703 12.0188 20.9219 11.9037 21.1212C11.5464 21.74 11.5464 22.5024 11.9037 23.1212C12.0188 23.3205 12.2255 23.5394 12.9286 24.2425C13.6317 24.9456 13.8507 25.1524 14.05 25.2675C14.6688 25.6247 15.4312 25.6247 16.05 25.2675C16.1421 25.2143 16.2627 25.1245 16.4824 24.9194C16.8861 24.5425 17.5189 24.5642 17.8958 24.9679C18.2727 25.3716 18.251 26.0044 17.8473 26.3813C17.5875 26.6238 17.3371 26.8338 17.05 26.9995C15.8124 27.7141 14.2876 27.7141 13.05 26.9995C12.5912 26.7347 12.1738 26.3168 11.6117 25.7541C11.5797 25.7221 11.5473 25.6896 11.5144 25.6567C11.4815 25.6238 11.4491 25.5914 11.4171 25.5595C10.8544 24.9974 10.4365 24.5799 10.1716 24.1212C9.45711 22.8836 9.45711 21.3588 10.1716 20.1212C10.4365 19.6625 10.8544 19.245 11.4171 18.6829C11.4491 18.651 11.4815 18.6186 11.5144 18.5857L14.3428 15.7572C14.3758 15.7243 14.4082 15.6919 14.4401 15.6599C15.0022 15.0972 15.4196 14.6793 15.8784 14.4145C17.116 13.6999 18.6408 13.6999 19.8784 14.4145C20.3371 14.6793 20.7545 15.0972 21.3167 15.6599C21.3486 15.6919 21.381 15.7243 21.4139 15.7572C21.4468 15.7902 21.4793 15.8226 21.5112 15.8545C22.074 16.4166 22.4918 16.834 22.7567 17.2928C23.4712 18.5304 23.4712 20.0552 22.7567 21.2928C22.5909 21.5799 22.381 21.8304 22.1385 22.0901C21.7616 22.4938 21.1288 22.5156 20.7251 22.1387C20.3214 21.7618 20.2997 21.129 20.6766 20.7253C20.8817 20.5055 20.9715 20.3849 21.0246 20.2928C21.3819 19.674 21.3819 18.9116 21.0246 18.2928C20.9096 18.0935 20.7028 17.8746 19.9997 17.1715C19.2966 16.4683 19.0777 16.2616 18.8784 16.1465Z" fill="black"/>
</mask>
<g mask="url(#mask0_1920_34438)">
<rect x="8" y="8" width="24" height="24" fill="white"/>
</g>
</g>
</g>
<defs>
<clipPath id="clip0_1920_34438">
<rect width="40" height="40" fill="white"/>
</clipPath>
<clipPath id="clip1_1920_34438">
<rect width="24" height="24" fill="white" transform="translate(8 8)"/>
</clipPath>
</defs>
</svg>
