<svg width="24" height="24" viewBox="0 0 24 24" fill="none" xmlns="http://www.w3.org/2000/svg">
<g clip-path="url(#clip0_2040_16703)">
<mask id="mask0_2040_16703" style="mask-type:alpha" maskUnits="userSpaceOnUse" x="0" y="0" width="24" height="24">
<path fill-rule="evenodd" clip-rule="evenodd" d="M11.9995 4.59085C9.87633 2.77637 6.7449 2.32397 4.29094 4.41405C1.63366 6.67731 1.2456 10.4936 3.34924 13.192C4.14012 14.2065 5.67858 15.725 7.15069 17.1101C8.642 18.5132 10.1297 19.839 10.8632 20.4865C10.8679 20.4907 10.8727 20.495 10.8777 20.4993C10.9459 20.5597 11.0347 20.6381 11.1204 20.7024C11.224 20.7802 11.3761 20.8793 11.5803 20.94C11.8494 21.0201 12.1385 21.0201 12.4077 20.94C12.6118 20.8793 12.7639 20.7802 12.8675 20.7024C12.9532 20.6381 13.042 20.5597 13.1103 20.4993L13.1247 20.4865C13.8583 19.839 15.3459 18.5132 16.8372 17.1101C18.3093 15.725 19.8478 14.2065 20.6387 13.192C22.7335 10.505 22.4064 6.65874 19.6866 4.4053C17.2061 2.35016 14.1175 2.77604 11.9995 4.59085ZM11.2412 6.6514C9.71543 4.87326 7.32997 4.45276 5.58776 5.93663C3.73595 7.51386 3.4892 10.1186 4.92656 11.9624C5.60775 12.8361 7.03279 14.253 8.5212 15.6535C9.87019 16.9227 11.2197 18.1309 11.994 18.8167C12.7682 18.1309 14.1177 16.9227 15.4667 15.6535C16.9551 14.253 18.3802 12.8361 19.0614 11.9624C20.5076 10.1072 20.2773 7.49203 18.4106 5.94538C16.6202 4.46199 14.2776 4.88172 12.759 6.6514C12.5691 6.8728 12.2919 7.0002 12.0001 7.0002C11.7084 7.0002 11.4312 6.8728 11.2412 6.6514Z" fill="#802CD9"/>
</mask>
<g mask="url(#mask0_2040_16703)">
<rect width="24" height="24" fill="#802CD9"/>
</g>
</g>
<defs>
<clipPath id="clip0_2040_16703">
<rect width="24" height="24" fill="white"/>
</clipPath>
</defs>
</svg>
