<svg width="40" height="40" viewBox="0 0 40 40" fill="none" xmlns="http://www.w3.org/2000/svg">
  <g clip-path="url(#clip0_1481_648)">
    <mask id="mask0_1481_648" style="mask-type:alpha" maskUnits="userSpaceOnUse" x="8" y="8" width="24" height="24">
      <path fill-rule="evenodd" clip-rule="evenodd" d="M21 10C21.5523 10 22 10.4477 22 11V11.5H22.5C23.0523 11.5 23.5 11.9477 23.5 12.5C23.5 13.0523 23.0523 13.5 22.5 13.5H22V14C22 14.5523 21.5523 15 21 15C20.4477 15 20 14.5523 20 14V13.5H19.5C18.9477 13.5 18.5 13.0523 18.5 12.5C18.5 11.9477 18.9477 11.5 19.5 11.5H20V11C20 10.4477 20.4477 10 21 10ZM16.6317 12.2929C16.926 12.5872 17.0073 13.0329 16.8358 13.4121C16.418 14.3359 16.1849 15.362 16.1849 16.4452C16.1849 20.5155 19.4845 23.8151 23.5548 23.8151C24.638 23.8151 25.6641 23.582 26.5879 23.1642C26.9671 22.9927 27.4128 23.074 27.7071 23.3683C28.0014 23.6625 28.0826 24.1083 27.9112 24.4874C26.4419 27.7362 23.1713 30 19.3698 30C14.195 30 10 25.805 10 20.6302C10 16.8287 12.2638 13.5581 15.5126 12.0888C15.8917 11.9174 16.3375 11.9986 16.6317 12.2929ZM14.251 15.3279C12.8625 16.6687 12 18.5492 12 20.6302C12 24.7004 15.2996 28 19.3698 28C21.4508 28 23.3313 27.1375 24.6721 25.749C24.3056 25.7927 23.9327 25.8151 23.5548 25.8151C18.3799 25.8151 14.1849 21.6201 14.1849 16.4452C14.1849 16.0673 14.2073 15.6944 14.251 15.3279ZM26.5 14C27.0523 14 27.5 14.4477 27.5 15V16.5H29C29.5523 16.5 30 16.9477 30 17.5C30 18.0523 29.5523 18.5 29 18.5H27.5V20C27.5 20.5523 27.0523 21 26.5 21C25.9477 21 25.5 20.5523 25.5 20V18.5H24C23.4477 18.5 23 18.0523 23 17.5C23 16.9477 23.4477 16.5 24 16.5H25.5V15C25.5 14.4477 25.9477 14 26.5 14Z" fill="#802CD9"/>
    </mask>
    <g mask="url(#mask0_1481_648)">
      <rect x="8" y="8" width="24" height="24" fill="var(--fill-fill-brand-dark, #1A1A1A)"/>
    </g>
  </g>
  <defs>
  <clipPath id="clip0_1481_648">
    <rect width="24" height="24" fill="white" transform="translate(8 8)"/>
  </clipPath>
  </defs>
</svg>
