<svg width="20" height="20" viewBox="0 0 20 20" fill="none" xmlns="http://www.w3.org/2000/svg">
<g id="arrow-right-from-bracket">
<path id="Icon (Stroke)" fill-rule="evenodd" clip-rule="evenodd" d="M18.088 9.41058C18.4134 9.73602 18.4134 10.2637 18.088 10.5891L14.7546 13.9224C14.4292 14.2479 13.9015 14.2479 13.5761 13.9224C13.2507 13.597 13.2507 13.0694 13.5761 12.7439L15.4869 10.8332H7.4987C7.03846 10.8332 6.66537 10.4601 6.66537 9.99984C6.66537 9.5396 7.03846 9.16651 7.4987 9.16651H15.4869L13.5761 7.25576C13.2507 6.93033 13.2507 6.40269 13.5761 6.07725C13.9015 5.75181 14.4292 5.75181 14.7546 6.07725L18.088 9.41058ZM11.6654 2.49984C11.6654 2.96008 11.2923 3.33317 10.832 3.33317L5.16602 3.33317C4.68555 3.33317 4.37533 3.33382 4.13921 3.35311C3.91283 3.37161 3.82889 3.40301 3.78769 3.424C3.63089 3.50389 3.50341 3.63138 3.42351 3.78818C3.40252 3.82938 3.37112 3.91332 3.35262 4.1397C3.33333 4.37582 3.33268 4.68604 3.33268 5.16651V14.8332C3.33268 15.3136 3.33333 15.6239 3.35262 15.86C3.37112 16.0864 3.40252 16.1703 3.42351 16.2115C3.50341 16.3683 3.63089 16.4958 3.78769 16.5757C3.82889 16.5967 3.91283 16.6281 4.13921 16.6466C4.37533 16.6659 4.68555 16.6665 5.16602 16.6665H10.832C11.2923 16.6665 11.6654 17.0396 11.6654 17.4998C11.6654 17.9601 11.2923 18.3332 10.832 18.3332H5.13388C4.69459 18.3332 4.31563 18.3332 4.00349 18.3077C3.67404 18.2808 3.34636 18.2214 3.03104 18.0607C2.56063 17.821 2.17818 17.4386 1.9385 16.9682C1.77784 16.6528 1.71841 16.3252 1.69149 15.9957C1.66599 15.6836 1.666 15.3046 1.66602 14.8653V5.13437C1.666 4.69508 1.66599 4.31612 1.69149 4.00398C1.71841 3.67453 1.77784 3.34685 1.9385 3.03153C2.17818 2.56112 2.56063 2.17867 3.03104 1.93899C3.34636 1.77833 3.67404 1.7189 4.00349 1.69198C4.31564 1.66648 4.6946 1.66649 5.1339 1.6665L10.832 1.66651C11.2923 1.66651 11.6654 2.0396 11.6654 2.49984Z" fill="var(--text-text-danger-default, #D92550)"/>
</g>
</svg>
