<svg width="40" height="40" viewBox="0 0 40 40" fill="none" xmlns="http://www.w3.org/2000/svg">
<g id="vk" clip-path="url(#clip0_1230_23364)">
<path id="Vector" d="M0 19.2005C0 10.1495 0 5.62404 2.81177 2.81226C5.62355 0.000488281 10.149 0.000488281 19.2 0.000488281H20.8C29.851 0.000488281 34.3764 0.000488281 37.1882 2.81226C40 5.62404 40 10.1495 40 19.2005V20.8005C40 29.8515 40 34.3769 37.1882 37.1887C34.3764 40.0005 29.851 40.0005 20.8 40.0005H19.2C10.149 40.0005 5.62355 40.0005 2.81177 37.1887C0 34.3769 0 29.8515 0 20.8005V19.2005Z" fill="#0077FF"/>
<path id="Vector_2" d="M18.1249 23.7003V12.792H21.1751V18.7503V19.4462L21.8669 19.3717C23.3834 19.2086 24.8612 18.28 26.0573 17.0203C27.1568 15.8623 28.0673 14.375 28.5944 12.792H31.6596C30.7752 16.261 28.1584 18.8344 26.2703 19.9259L25.2342 20.5249L26.3179 21.0329C28.2106 21.9201 31.2045 24.1757 32.5865 28.192H29.1451C27.9796 25.0422 25.3469 22.5918 21.862 22.2451L21.1751 22.1767V22.867V28.1917C16.8225 28.1672 13.4639 26.6662 11.1526 23.984C8.9082 21.3794 7.59471 17.5947 7.39474 12.792H10.7109C11.029 20.172 14.3946 23.5682 17.3483 24.3067L18.1249 24.5008V23.7003Z" fill="white" stroke="white" stroke-width="1.25"/>
</g>
<defs>
<clipPath id="clip0_1230_23364">
<rect width="40" height="40" fill="white" transform="translate(0 0.000488281)"/>
</clipPath>
</defs>
</svg>
