<svg xmlns="http://www.w3.org/2000/svg" width="18" height="18" viewBox="0 0 18 18" fill="none">
  <path fill-rule="evenodd" clip-rule="evenodd" d="M8.99961 3.44302C7.40725 2.08216 5.05867 1.74285 3.21821 3.31041C1.22525 5.00786 0.934197 7.8701 2.51193 9.8939C3.10509 10.6548 4.25894 11.7936 5.36302 12.8324C6.4815 13.8848 7.59724 14.8791 8.1474 15.3648C8.15093 15.3679 8.15455 15.3711 8.15825 15.3744C8.20946 15.4196 8.27603 15.4785 8.34028 15.5267C8.41802 15.585 8.53207 15.6594 8.6852 15.7049C8.88707 15.7649 9.10387 15.7649 9.30574 15.7049C9.45887 15.6594 9.57292 15.585 9.65066 15.5267C9.71491 15.4785 9.78148 15.4196 9.83269 15.3744L9.84354 15.3648C10.3937 14.8791 11.5094 13.8848 12.6279 12.8324C13.732 11.7936 14.8858 10.6548 15.479 9.8939C17.0501 7.87863 16.8048 4.99393 14.7649 3.30385C12.9045 1.7625 10.5881 2.08191 8.99961 3.44302ZM8.43092 4.98843C7.28657 3.65483 5.49748 3.33945 4.19082 4.45235C2.80196 5.63527 2.6169 7.58885 3.69492 8.97166C4.20581 9.62698 5.27459 10.6896 6.3909 11.74C7.40265 12.6919 8.41481 13.5981 8.99547 14.1124C9.57613 13.5981 10.5883 12.6919 11.6 11.74C12.7163 10.6896 13.7851 9.62698 14.296 8.97166C15.3807 7.58031 15.208 5.6189 13.8079 4.45891C12.4651 3.34637 10.7082 3.66117 9.56927 4.98843C9.42679 5.15448 9.2189 5.25003 9.00009 5.25003C8.78129 5.25003 8.5734 5.15448 8.43092 4.98843Z" fill="#802CD9"/>
</svg>