<svg width="40" height="40" viewBox="0 0 40 40" fill="none" xmlns="http://www.w3.org/2000/svg">
<g clip-path="url(#clip0_1575_11562)">
<path d="M20 40C31.0457 40 40 31.0457 40 20C40 8.95431 31.0457 0 20 0C8.95431 0 0 8.95431 0 20C0 31.0457 8.95431 40 20 40Z" fill="black"/>
<g clip-path="url(#clip1_1575_11562)">
<path d="M21.6115 18.4643L28.8931 10H27.1676L20.845 17.3494L15.7951 10H9.9707L17.6071 21.1136L9.9707 29.9897H11.6963L18.3732 22.2285L23.7062 29.9897H29.5306L21.6111 18.4643H21.6115ZM19.248 21.2115L18.4743 20.1049L12.3181 11.299H14.9685L19.9367 18.4056L20.7104 19.5123L27.1684 28.7498H24.518L19.248 21.212V21.2115Z" fill="white"/>
</g>
</g>
<defs>
<clipPath id="clip1_1575_11562">
<rect width="19.5599" height="20" fill="white" transform="translate(9.97168 10)"/>
</clipPath>
</defs>
</svg>
