<svg width="40" height="40" viewBox="0 0 40 40" fill="none" xmlns="http://www.w3.org/2000/svg">
<g id="telegram" clip-path="url(#clip0_1230_23360)">
<g id="Artboard">
<path id="Oval" d="M20 39.9995C31.0457 39.9995 40 31.0452 40 19.9995C40 8.95382 31.0457 -0.000488281 20 -0.000488281C8.95431 -0.000488281 0 8.95382 0 19.9995C0 31.0452 8.95431 39.9995 20 39.9995Z" fill="url(#paint0_linear_1230_23360)"/>
<path id="Path-3" d="M9.06672 19.8163L9.06673 19.8163L9.06762 19.8159C14.8981 17.2757 18.7857 15.6011 20.7307 14.7921C23.5079 13.637 25.1844 12.9594 26.2605 12.5689C27.337 12.1782 27.8096 12.0762 28.1803 12.0697C28.2607 12.0683 28.392 12.0776 28.5325 12.1111C28.6732 12.1447 28.8208 12.2022 28.9359 12.2955C29.1294 12.4526 29.1835 12.6651 29.2098 12.8189C29.2362 12.9729 29.269 13.3247 29.243 13.5983C28.9421 16.7593 27.64 24.4325 26.9775 27.9746C26.6976 29.4705 26.1503 29.9535 25.6374 30.0007C25.0655 30.0534 24.5611 29.8648 24.0575 29.5689C23.8056 29.4209 23.5545 29.2465 23.2955 29.0625C23.2522 29.0317 23.2086 29.0007 23.1648 28.9694C22.9471 28.8142 22.7229 28.6544 22.4883 28.5006C21.6084 27.9238 20.9199 27.4559 20.2377 26.9913L20.1475 26.9299C19.4956 26.486 18.8419 26.0408 18.025 25.5025C17.5329 25.1782 17.2477 24.893 17.1111 24.6314C16.9757 24.3719 16.9852 24.1336 17.0889 23.8973C17.1934 23.6589 17.3938 23.4226 17.6409 23.1711C17.7502 23.06 17.8679 22.9465 17.9899 22.8288C18.0057 22.8136 18.0216 22.7983 18.0375 22.783C18.1764 22.649 18.3198 22.5096 18.4609 22.3631C18.5305 22.2908 18.8713 21.974 19.3524 21.5267C19.8851 21.0314 20.5899 20.3763 21.2886 19.7164C21.9529 19.089 22.6114 18.4578 23.11 17.9569C23.3592 17.7065 23.5689 17.4884 23.7194 17.3195C23.7946 17.2351 23.8555 17.1626 23.8992 17.1042C23.921 17.0751 23.9389 17.0491 23.9523 17.0266C23.9653 17.0047 23.9752 16.9842 23.9794 16.9664C23.9865 16.9361 23.9925 16.8699 23.9818 16.7975C23.9711 16.7252 23.9429 16.6421 23.877 16.5835C23.8113 16.5251 23.7308 16.5069 23.6531 16.5063C23.5759 16.5057 23.4985 16.5225 23.4364 16.5366C23.4208 16.5401 23.3959 16.5518 23.365 16.5681C23.3328 16.5852 23.2904 16.6093 23.238 16.6403C23.1331 16.7024 22.9872 16.7928 22.8004 16.9116C22.4265 17.149 21.8881 17.5002 21.185 17.9649C19.7789 18.8943 17.7139 20.2783 14.9901 22.1169L14.9899 22.1171C14.1945 22.6633 13.4777 22.9268 12.8386 22.913C12.4852 22.9053 11.9661 22.8051 11.4059 22.6647C10.8465 22.5244 10.2485 22.3445 9.73832 22.1787C9.58732 22.1296 9.44038 22.0834 9.29882 22.0389C8.85109 21.8981 8.45722 21.7743 8.15929 21.6299C7.96359 21.5351 7.81269 21.433 7.71603 21.3142C7.62032 21.1966 7.57691 21.0616 7.59753 20.8971C7.61857 20.7293 7.74572 20.5536 7.99148 20.3711C8.23645 20.1892 8.59441 20.0041 9.06672 19.8163ZM23.443 16.5658C23.2665 16.6059 20.4544 18.4646 15.0069 22.1418C14.2087 22.6899 13.4857 22.9569 12.838 22.9429C12.1239 22.9275 10.7502 22.5392 9.72905 22.2072C9.57908 22.1585 9.43279 22.1125 9.29161 22.0681C8.25367 21.7417 7.49146 21.5021 7.56776 20.8934C7.61291 20.5333 8.10887 20.1649 9.05564 19.7884C14.886 17.2482 18.7739 15.5736 20.7192 14.7644C26.2734 12.4542 27.4275 12.0529 28.1798 12.0397C28.3452 12.0368 28.7151 12.0778 28.9548 12.2722C29.1571 12.4364 29.2128 12.6582 29.2394 12.8138C29.2661 12.9695 29.2992 13.3241 29.2729 13.6012C28.9719 16.7636 27.6695 24.4381 27.0069 27.9802C26.7266 29.4789 26.1746 29.9814 25.6401 30.0306C24.7204 30.1153 23.9759 29.5845 23.1473 28.9938C22.9295 28.8385 22.7059 28.6791 22.4718 28.5257C21.553 27.9233 20.8428 27.4397 20.1307 26.9548C19.4787 26.5108 18.8252 26.0657 18.0085 25.5275C16.309 24.4076 17.0204 23.7218 17.9691 22.8072C18.1227 22.6592 18.2825 22.5051 18.4393 22.3423C18.5093 22.2696 18.8517 21.9513 19.3343 21.5025C20.8827 20.0631 23.8746 17.2815 23.9502 16.9596C23.9625 16.9068 23.974 16.7099 23.8571 16.606C23.7402 16.502 23.5676 16.5376 23.443 16.5658Z" fill="white" stroke="white" stroke-width="0.06"/>
</g>
</g>
<defs>
<linearGradient id="paint0_linear_1230_23360" x1="2000" y1="-0.000488281" x2="2000" y2="3970.33" gradientUnits="userSpaceOnUse">
<stop stop-color="#2AABEE"/>
<stop offset="1" stop-color="#229ED9"/>
</linearGradient>
<clipPath id="clip0_1230_23360">
<rect width="40" height="40" fill="white" transform="translate(0 0.000488281)"/>
</clipPath>
</defs>
</svg>
