<svg width="100" height="100" viewBox="0 0 100 100" fill="none" xmlns="http://www.w3.org/2000/svg">
<g id="sad-smile">
<path id="Vector" d="M6.25054 42.661C9.90598 21.9691 27.9761 6.25 49.7165 6.25M93.1826 58.1207C89.5268 78.8126 71.4567 94.5317 49.7165 94.5317" stroke="#FF6600" stroke-width="8.5" stroke-miterlimit="22.9256" stroke-linecap="round"/>
<path id="Vector_2" d="M69.0784 26.8885C63.8154 22.5481 57.07 19.9401 49.7156 19.9401C42.3612 19.9401 35.6155 22.5481 30.353 26.8885M78.4497 50.3913C78.4497 56.0675 73.8482 60.6689 68.172 60.6689C62.4954 60.6689 57.8944 56.0675 57.8944 50.3913C57.8944 44.7151 62.4954 40.1133 68.172 40.1133C73.8482 40.1133 78.4497 44.7151 78.4497 50.3913ZM40.5895 50.3913C40.5895 56.0675 35.988 60.6689 30.3118 60.6689C24.6352 60.6689 20.0342 56.0675 20.0342 50.3913C20.0342 44.7151 24.6352 40.1133 30.3118 40.1133C35.988 40.1133 40.5895 44.7151 40.5895 50.3913Z" stroke="#FF6600" stroke-width="8.5" stroke-miterlimit="22.9256" stroke-linecap="round"/>
<path id="Vector_3" d="M40.2432 80.8435C43.2244 79.8684 46.4089 79.3408 49.716 79.3408C53.0232 79.3408 56.2078 79.8684 59.1886 80.8435" stroke="#FF6600" stroke-width="8.5" stroke-miterlimit="22.9256" stroke-linecap="round"/>
</g>
</svg>
