<svg width="24" height="24" viewBox="0 0 24 24" fill="none" xmlns="http://www.w3.org/2000/svg">
<g id="menu">
<path id="Icon (Stroke)" fill-rule="evenodd" clip-rule="evenodd" d="M2.99902 6.00054C2.99902 5.44823 3.44676 5.00049 3.99908 5.00049H20C20.5523 5.00049 21 5.44823 21 6.00054C21 6.55286 20.5523 7.0006 20 7.0006H3.99908C3.44676 7.0006 2.99902 6.55286 2.99902 6.00054ZM2.99902 12.0009C2.99902 11.4486 3.44676 11.0008 3.99908 11.0008H20C20.5523 11.0008 21 11.4486 21 12.0009C21 12.5532 20.5523 13.0009 20 13.0009H3.99908C3.44676 13.0009 2.99902 12.5532 2.99902 12.0009ZM2.99902 18.0012C2.99902 17.4489 3.44676 17.0012 3.99908 17.0012H20C20.5523 17.0012 21 17.4489 21 18.0012C21 18.5535 20.5523 19.0013 20 19.0013H3.99908C3.44676 19.0013 2.99902 18.5535 2.99902 18.0012Z" fill="var(--icon-color, #1A1A1A)"/>
</g>
</svg>
